<?xml version="1.0"?>
<svg xmlns="http://www.w3.org/2000/svg" id="Capa_1" enable-background="new 0 0 512 512" height="512px" viewBox="0 0 512 512" width="512px"><g><g><g><path d="m482.631 133.666 24.045-49.852c1.121-2.323.968-5.061-.404-7.246s-3.771-3.512-6.352-3.512h-45.322v-54.657c0-3.499-2.419-6.532-5.83-7.312-3.409-.779-6.907.903-8.426 4.056l-23.476 48.712c-35.32-23.706-76.347-36.193-119.226-36.193h-1.783c-4.142 0-7.5 3.357-7.5 7.5s3.358 7.5 7.5 7.5h1.783c8.176 0 16.278.492 24.278 1.458 19.737 4.5 35.916 19.22 42.258 38.478 1.039 3.156 3.972 5.156 7.122 5.156.778 0 1.569-.122 2.348-.378 3.934-1.296 6.073-5.536 4.777-9.47-2.844-8.637-7.263-16.548-12.895-23.411 15.72 5.693 30.731 13.399 44.752 23.026l-22.761 47.229c-1.12 2.324-.967 5.061.405 7.245 1.373 2.185 3.771 3.511 6.351 3.511h45.322v54.566c0 3.498 2.418 6.532 5.829 7.312.559.128 1.119.189 1.673.189 2.829 0 5.482-1.608 6.753-4.243l20.793-43.109c10.052 19.361 16.826 40.239 20.092 61.802-.002.065-.01.129-.01.195 0 18.974-15.436 34.409-34.409 34.409-4.142 0-7.5 3.357-7.5 7.5s3.358 7.5 7.5 7.5c14.494 0 27.549-6.274 36.595-16.248-.38 7.591-2.047 15.002-4.973 22.072-3.359 8.105-8.202 15.354-14.393 21.545-12.555 12.547-29.239 19.456-46.979 19.456h-42.019c-4.142 0-7.5 3.357-7.5 7.5s3.358 7.5 7.5 7.5h35.967v20.856c0 11.499-9.355 20.854-20.854 20.854h-82.227c-11.499 0-20.854-9.355-20.854-20.854v-20.856h52.919c4.142 0 7.5-3.357 7.5-7.5s-3.358-7.5-7.5-7.5h-113.989c-9.325-.031-18.038-3.725-24.546-10.414-6.533-6.714-9.989-15.58-9.731-24.965.114-4.14-3.151-7.589-7.292-7.702-4.162-.147-7.589 3.15-7.703 7.291-.369 13.446 4.579 26.154 13.931 35.79h-12.04c-30.301 0-57.225-18.606-68.259-46.188 20.151-4.554 35.249-22.589 35.249-44.097 0-4.143-3.358-7.5-7.5-7.5s-7.5 3.357-7.5 7.5c0 16.401-13.137 29.782-29.44 30.198-.181-.021-.357-.059-.541-.066-1.839-.076-3.668-.228-5.489-.416l11.25-23.323c1.121-2.323.968-5.061-.404-7.246s-3.771-3.512-6.352-3.512h-45.322v-54.657c0-3.499-2.419-6.532-5.83-7.312-3.409-.779-6.907.903-8.426 4.056l-17.391 36.087c-3.666-9.749-5.574-20.146-5.574-30.685 0-64.161 52.124-117.32 116.232-118.594.039 0 .076.006.115.006 12.811 0 23.233 10.423 23.233 23.233 0 4.143 3.358 7.5 7.5 7.5s7.5-3.357 7.5-7.5c0-14.688-8.33-27.46-20.51-33.861 8.024-4.026 16.929-6.173 26.07-6.173 14.27 0 27.979 5.223 38.631 14.706.052.049.097.101.151.15 11.883 10.656 19.371 26.12 19.371 43.3 0 4.143 3.358 7.5 7.5 7.5s7.5-3.357 7.5-7.5c0-15.355-4.763-29.615-12.878-41.396h9.812c4.142 0 7.5-3.357 7.5-7.5s-3.358-7.5-7.5-7.5h-23.504c-13.092-10.828-29.52-16.76-46.582-16.76-17.128 0-33.612 5.971-46.73 16.869-34.141 1.31-66.04 15.398-90.081 39.852-24.719 25.14-38.331 58.406-38.331 93.668 0 16.891 4.182 33.48 12.112 48.243l-26.969 55.96c-1.12 2.324-.967 5.061.405 7.245 1.373 2.185 3.771 3.511 6.351 3.511h45.322v54.566c0 3.498 2.418 6.532 5.829 7.312.559.128 1.119.189 1.673.189 2.829 0 5.482-1.608 6.753-4.243l34.701-71.944c2.103.328 4.225.595 6.359.793 7.411 22.272 23.235 40.199 43.312 50.605l-9.754 20.239c-1.798 3.731-.231 8.214 3.5 10.012 1.05.506 2.159.746 3.251.746 2.79 0 5.469-1.564 6.762-4.246l10.12-20.997c8.507 2.708 17.521 4.169 26.801 4.169h88.895l-66.243 137.338v-67.928c0-4.143-3.358-7.5-7.5-7.5h-73.8l6.462-13.408c1.798-3.73.231-8.214-3.5-10.012-3.731-1.802-8.214-.231-10.013 3.5l-11.646 24.164c-1.12 2.323-.967 5.061.405 7.245s3.771 3.511 6.351 3.511h78.24v93.239c0 3.498 2.418 6.532 5.829 7.312.559.128 1.119.189 1.673.189 2.829 0 5.482-1.607 6.753-4.242l56.014-116.125 83.556 103.671c1.424 1.767 3.57 2.794 5.839 2.794h52.561c2.458 0 4.76-1.204 6.161-3.224 1.401-2.019 1.725-4.597.865-6.899l-36.173-96.914h20.805c19.77 0 35.854-16.084 35.854-35.854v-21.356c18.361-1.995 35.377-10.099 48.635-23.347 7.592-7.592 13.528-16.479 17.646-26.415 4.114-9.94 6.2-20.427 6.2-31.169.003-38.221-10.141-75.592-29.366-108.355zm-35.533-13.161h-40.882l33.382-69.269v29.319c0 4.143 3.358 7.5 7.5 7.5h40.878l-33.378 69.202v-29.253c0-4.141-3.358-7.499-7.5-7.499zm-386.776 140.745h-40.882l33.382-69.268v29.319c0 4.143 3.358 7.5 7.5 7.5h40.878l-33.378 69.201v-29.252c0-4.142-3.358-7.5-7.5-7.5zm340.879 210.95h-38.168l-85.77-106.418 8.525-17.673c1.904 17.99 17.164 32.055 35.651 32.055h45.411z" data-original="#000000" class="active-path" data-old_color="#000000" fill="#CE1B28"/><path d="m357.818 224.636h-43.906c-4.142 0-7.5 3.357-7.5 7.5s3.358 7.5 7.5 7.5h43.906c21.082 0 38.233-17.151 38.233-38.233 0-8.365-2.653-16.312-7.673-22.979-2.491-3.31-7.192-3.973-10.503-1.48-3.309 2.491-3.972 7.193-1.48 10.502 3.046 4.047 4.657 8.873 4.657 13.957-.001 12.81-10.423 23.233-23.234 23.233z" data-original="#000000" class="active-path" data-old_color="#000000" fill="#CE1B28"/><path d="m240.501 224.636c-8.338 0-16.629 2.079-23.974 6.012-3.652 1.956-5.027 6.501-3.072 10.152 1.352 2.525 3.941 3.962 6.618 3.962 1.195 0 2.407-.287 3.534-.89 5.176-2.771 11.018-4.236 16.894-4.236h26.263c4.142 0 7.5-3.357 7.5-7.5s-3.358-7.5-7.5-7.5z" data-original="#000000" class="active-path" data-old_color="#000000" fill="#CE1B28"/><path d="m151.105 113.393c0 26.676-21.703 48.379-48.379 48.379-4.142 0-7.5 3.357-7.5 7.5s3.358 7.5 7.5 7.5c34.947 0 63.379-28.432 63.379-63.379 0-4.143-3.358-7.5-7.5-7.5s-7.5 3.357-7.5 7.5z" data-original="#000000" class="active-path" data-old_color="#000000" fill="#CE1B28"/><path d="m367.059 276.175c0 4.143 3.358 7.5 7.5 7.5 28.79 0 53.999-19.426 61.303-47.239 1.052-4.007-1.342-8.107-5.349-9.159-4.005-1.053-8.107 1.343-9.159 5.349-5.575 21.226-24.817 36.05-46.795 36.05-4.142-.001-7.5 3.357-7.5 7.499z" data-original="#000000" class="active-path" data-old_color="#000000" fill="#CE1B28"/><path d="m220.072 148.832c11.271 0 20.439 9.169 20.439 20.439 0 4.143 3.358 7.5 7.5 7.5s7.5-3.357 7.5-7.5c0-19.541-15.898-35.439-35.439-35.439-4.142 0-7.5 3.357-7.5 7.5s3.358 7.5 7.5 7.5z" data-original="#000000" class="active-path" data-old_color="#000000" fill="#CE1B28"/><path d="m307.519 157.586c-4.142 0-7.5 3.357-7.5 7.5s3.358 7.5 7.5 7.5c24.188 0 43.866-19.678 43.866-43.865s-19.678-43.866-43.866-43.866c-4.142 0-7.5 3.357-7.5 7.5s3.358 7.5 7.5 7.5c15.917 0 28.866 12.949 28.866 28.866-.001 15.916-12.95 28.865-28.866 28.865z" data-original="#000000" class="active-path" data-old_color="#000000" fill="#CE1B28"/></g></g></g> </svg>
