<?xml version="1.0"?>
<svg xmlns="http://www.w3.org/2000/svg" id="Layer_1" enable-background="new 0 0 128 128" viewBox="0 0 128 128" width="512px" height="512px"><g><g><path d="m116.6 66.4c-2.5-.7-10.1-2.5-10.1-2.5l-16.4-19.8c-2.6-3.2-6.5-5-10.6-5h-3c8.2-6.9 9.3-19.2 2.4-27.4s-19.1-9.3-27.4-2.4-9.3 19.2-2.4 27.4c.7.9 1.5 1.7 2.4 2.4h-3c-4.1 0-8 1.8-10.6 5l-16.4 19.7-10.1 2.5c-4.7 1.2-7.7 6-6.4 10.7 1.5 5.5 6.8 7.3 10.6 6.4s15.1-3.7 15.1-3.7c.4-.1.7-.3.9-.6l9.5-11.4v15.6s-7.5 3.7-9.9 4.9c-1.6.8-3.7 3-4.7 6.2-.3.9-1.1 3.7-1.1 3.7v.1c-1.8 5.9 1.5 12 7.4 13.8l35.8 10.8c5.6 1.7 11.6-1.3 13.6-6.8l13.2-4c5.8-1.8 9.2-7.9 7.4-13.8v-.1l-1.1-3.7c-.8-2.6-2.8-5.2-4.7-6.2-1.6-.8-9.9-4.9-9.9-4.9v-15.7l9.3 11.4c.2.3.6.5.9.6l15.1 3.7c4.7 1.2 9.5-1.7 10.6-6.4 1.1-4.6-1.4-9.2-6.4-10.5zm-68.5-42.2c0-8.8 7.1-15.9 15.9-15.9s15.9 7.1 15.9 15.9-7.1 15.9-15.9 15.9-15.9-7.1-15.9-15.9zm30.8 90.2c-1.2 4-5.4 6.3-9.4 5.1l-35.8-10.8c-4-1.2-6.3-5.5-5-9.5s.8-2.8 1.1-3.7c1.7-5.3 7.1-6.1 10.2-4.8 5.8 2.4 26 10.9 34.6 14.6 4.7 1.9 5.1 6.7 4.3 9.1zm15.4-5.8c-2.9.9-11.5 3.5-11.5 3.5 0-4.4-2.7-8.4-6.7-10.1l-7.5-3.2s14.6-6.2 19.5-8.2c6.1-2.5 9.7 3 10.2 4.8 0 0 1.2 3.8 1.2 3.8 1.5 5.8-3.3 8.8-5.2 9.4zm18.9-28.6c-3.6-.9-14.5-3.6-14.5-3.6l-12.2-14.8c-.6-.7-1.7-.9-2.5-.2-.4.3-.6.8-.6 1.4v21.6c0 .7.4 1.3 1 1.6l2.6 1.3c-.3.1-23 9.7-23 9.7s-22.6-9.6-23-9.7l2.6-1.3c.6-.3 1-.9 1-1.6v-21.6c0-1-.8-1.8-1.8-1.8-.5 0-1 .2-1.3.6l-12.2 14.7-14.5 3.6c-2.8.7-5.7-1-6.4-3.9-.7-2.8 1-5.6 3.8-6.3l10.7-2.7c.4-.1.7-.3.9-.6l16.8-20.2c1.9-2.4 4.8-3.7 7.9-3.7h9.3c4.1 1.4 8.5 1.4 12.5 0h9.3c3.1 0 5.9 1.4 7.9 3.7l16.8 20.2c.2.3.6.5.9.6 0 0 8 2 10.6 2.7 3.9 1 4.3 5 3.7 6.8-.3 1-2.2 4.4-6.3 3.5z" data-original="#000000" class="active-path" data-old_color="#000000" fill="#CE1B28"/><path d="m79.2 70.6c-1 0-1.8.8-1.8 1.8v8.5c0 1 .8 1.8 1.8 1.8s1.8-.8 1.8-1.8v-8.5c-.1-1-.9-1.8-1.8-1.8z" data-original="#000000" class="active-path" data-old_color="#000000" fill="#CE1B28"/></g></g> </svg>
